<!-- <svg role="img" xmlns="http://www.w3.org/2000/svg" viewBox="0 0 24 24"><title>YouTube icon</title><path d="M23.499 6.203a3.008 3.008 0 00-2.089-2.089c-1.87-.501-9.4-.501-9.4-.501s-7.509-.01-9.399.501a3.008 3.008 0 00-2.088 2.09A31.258 31.26 0 000 12.01a31.258 31.26 0 00.523 5.785 3.008 3.008 0 002.088 2.089c1.869.502 9.4.502 9.4.502s7.508 0 9.399-.502a3.008 3.008 0 002.089-2.09 31.258 31.26 0 00.5-5.784 31.258 31.26 0 00-.5-5.808zm-13.891 9.4V8.407l6.266 3.604z"/></svg> -->

 <svg
    xmlns="http://www.w3.org/2000/svg"
    role="img"
    viewBox="0 0 24 24"
    fill="none"
    stroke="currentColor"
    strokeWidth="2"
    strokeLinecap="round"
    strokeLinejoin="round"
    className="feather feather-instagram"
  >
    <rect x="2" y="2" width="20" height="20" rx="5" ry="5"></rect>
    <path d="M16 11.37A4 4 0 1 1 12.63 8 4 4 0 0 1 16 11.37z"></path>
    <line x1="17.5" y1="6.5" x2="17.51" y2="6.5"></line>
  </svg>