<svg xmlns="http://www.w3.org/2000/svg" xmlns:xlink="http://www.w3.org/1999/xlink" width="50" zoomAndPan="magnify" viewBox="0 0 375 374.999991" height="50" preserveAspectRatio="xMidYMid meet" version="1.0"><defs><g/><clipPath id="2447f4936c"><path d="M 4 72.609375 L 34 72.609375 L 34 114 L 4 114 Z M 4 72.609375 " clip-rule="nonzero"/></clipPath><clipPath id="dda17bc75d"><path d="M 35 72.609375 L 65 72.609375 L 65 114 L 35 114 Z M 35 72.609375 " clip-rule="nonzero"/></clipPath><clipPath id="e3bc5be32e"><path d="M 341.378906 260.867188 L 370.703125 260.867188 L 370.703125 302.109375 L 341.378906 302.109375 Z M 341.378906 260.867188 " clip-rule="nonzero"/></clipPath><clipPath id="28e9ec9343"><path d="M 310.585938 260.867188 L 339.910156 260.867188 L 339.910156 302.109375 L 310.585938 302.109375 Z M 310.585938 260.867188 " clip-rule="nonzero"/></clipPath></defs><path fill="#f2f4f6" d="M 340.203125 285.492188 L 53.921875 285.492188 C 49.082031 285.492188 45.125 281.539062 45.125 276.703125 L 45.125 117.414062 C 45.125 112.578125 49.082031 108.625 53.921875 108.625 L 340.203125 108.625 C 345.039062 108.625 349 112.578125 349 117.414062 L 349 276.703125 C 349 281.539062 345.039062 285.492188 340.203125 285.492188 " fill-opacity="1" fill-rule="nonzero"/><g clip-path="url(#2447f4936c)"><path fill="#3affef" d="M 33.082031 99.859375 C 33.082031 103.695312 31.671875 106.976562 28.855469 109.707031 C 26.125 112.441406 22.882812 113.800781 19.125 113.800781 C 14.519531 113.800781 10.851562 112.097656 8.117188 108.683594 C 5.46875 105.53125 4.148438 101.648438 4.148438 97.042969 C 4.148438 88.597656 11.316406 80.457031 25.65625 72.613281 L 27.707031 75.804688 C 22.84375 79.816406 20.40625 83.054688 20.40625 85.53125 C 20.40625 86.300781 21.429688 87.066406 23.476562 87.835938 C 26.554688 88.941406 28.640625 90.011719 29.757812 91.027344 C 31.96875 92.910156 33.082031 95.851562 33.082031 99.859375 " fill-opacity="1" fill-rule="nonzero"/></g><g clip-path="url(#dda17bc75d)"><path fill="#3affef" d="M 64.125 99.859375 C 64.125 103.695312 62.84375 106.976562 60.28125 109.707031 C 57.550781 112.441406 54.269531 113.800781 50.429688 113.800781 C 45.820312 113.800781 42.148438 112.097656 39.414062 108.683594 C 36.6875 105.53125 35.320312 101.648438 35.320312 97.042969 C 35.320312 88.597656 42.488281 80.457031 56.828125 72.613281 L 59.128906 75.804688 C 54.09375 79.816406 51.578125 83.054688 51.578125 85.53125 C 51.578125 86.300781 52.6875 87.066406 54.902344 87.835938 C 57.890625 88.941406 59.941406 90.011719 61.054688 91.027344 C 63.097656 92.910156 64.125 95.851562 64.125 99.859375 " fill-opacity="1" fill-rule="nonzero"/></g><path fill="#3affef" d="M 336.507812 110.78125 L 336.507812 251.457031 L 341.851562 251.457031 L 341.851562 110.78125 C 341.851562 103.414062 335.855469 97.421875 328.480469 97.421875 L 60.003906 97.421875 L 60.003906 102.765625 L 328.480469 102.765625 C 332.90625 102.765625 336.507812 106.363281 336.507812 110.78125 " fill-opacity="1" fill-rule="nonzero"/><g clip-path="url(#e3bc5be32e)"><path fill="#3affef" d="M 341.765625 274.863281 C 341.765625 271.027344 343.179688 267.746094 345.992188 265.015625 C 348.726562 262.28125 351.96875 260.917969 355.722656 260.917969 C 360.332031 260.917969 364 262.625 366.730469 266.039062 C 369.378906 269.1875 370.703125 273.074219 370.703125 277.679688 C 370.703125 286.125 363.535156 294.265625 349.195312 302.109375 L 347.144531 298.917969 C 352.007812 294.90625 354.445312 291.664062 354.445312 289.191406 C 354.445312 288.421875 353.417969 287.652344 351.375 286.886719 C 348.296875 285.78125 346.210938 284.710938 345.09375 283.691406 C 342.878906 281.8125 341.765625 278.871094 341.765625 274.863281 " fill-opacity="1" fill-rule="nonzero"/></g><g clip-path="url(#28e9ec9343)"><path fill="#3affef" d="M 310.722656 274.863281 C 310.722656 271.027344 312.007812 267.746094 314.566406 265.015625 C 317.300781 262.28125 320.582031 260.917969 324.421875 260.917969 C 329.03125 260.917969 332.703125 262.625 335.433594 266.039062 C 338.164062 269.1875 339.53125 273.074219 339.53125 277.679688 C 339.53125 286.125 332.363281 294.265625 318.023438 302.109375 L 315.722656 298.917969 C 320.753906 294.90625 323.273438 291.664062 323.273438 289.191406 C 323.273438 288.421875 322.164062 287.652344 319.949219 286.886719 C 316.957031 285.78125 314.90625 284.710938 313.796875 283.691406 C 311.753906 281.8125 310.722656 278.871094 310.722656 274.863281 " fill-opacity="1" fill-rule="nonzero"/></g><path fill="#3affef" d="M 38.34375 263.941406 L 38.34375 123.265625 L 32.996094 123.265625 L 32.996094 263.941406 C 32.996094 271.308594 38.996094 277.300781 46.367188 277.300781 L 314.847656 277.300781 L 314.847656 271.957031 L 46.367188 271.957031 C 41.945312 271.957031 38.34375 268.359375 38.34375 263.941406 " fill-opacity="1" fill-rule="nonzero"/><g fill="#9dfff7" fill-opacity="1"><g transform="translate(116.494319, 147.625171)"><g><path d="M 2.890625 -1.1875 L 3.328125 -0.277344 L 4.078125 0.078125 L 17.1875 -0.078125 L 18.691406 -0.277344 L 19.996094 -0.792969 L 21.503906 -1.664062 L 22.019531 -2.058594 L 22.652344 -2.652344 L 23.5625 -3.960938 L 23.917969 -4.710938 L 24.078125 -5.386719 L 24.394531 -6.175781 L 24.433594 -9.34375 L 24.273438 -10.097656 L 23.996094 -10.929688 L 23.285156 -12.316406 L 22.730469 -12.988281 L 22.136719 -13.582031 L 21.78125 -14.453125 L 21.9375 -15.246094 L 22.375 -16.039062 L 22.847656 -16.710938 L 23.402344 -19.5625 L 23.363281 -20.710938 L 22.929688 -22.175781 L 22.53125 -22.929688 L 22.292969 -23.679688 L 21.34375 -24.949219 L 20.789062 -25.503906 L 19.601562 -26.335938 L 18.136719 -27.125 L 15.917969 -27.640625 L 4 -27.71875 L 3.207031 -27.363281 L 2.851562 -26.53125 L 2.929688 -24.828125 L 2.851562 -23.679688 L 3.007812 -21.027344 L 2.890625 -20.195312 L 2.96875 -19.363281 L 2.890625 -18.613281 L 2.929688 -17.78125 L 2.851562 -17.027344 L 2.851562 -13.859375 L 2.96875 -13.027344 L 2.890625 -12.277344 L 2.890625 -10.691406 L 2.96875 -9.941406 L 2.890625 -6.691406 L 3.007812 -5.070312 L 2.851562 -2.691406 Z M 11.007812 -16.988281 L 10.058594 -17.304688 L 9.664062 -18.097656 L 9.820312 -18.769531 L 9.820312 -19.523438 L 9.742188 -20.273438 L 10.175781 -20.949219 L 11.007812 -21.382812 L 13.859375 -21.265625 L 15.085938 -21.027344 L 15.5625 -20.710938 L 16.078125 -20.15625 L 16.195312 -19.085938 L 16 -17.898438 L 15.324219 -17.265625 L 13.980469 -16.988281 Z M 10.890625 -6.296875 L 10.21875 -6.613281 L 9.78125 -7.445312 L 9.820312 -8.117188 L 9.742188 -8.871094 L 9.78125 -9.664062 L 10.058594 -10.375 L 10.851562 -10.769531 L 15.046875 -10.769531 L 16.15625 -10.574219 L 16.75 -10.136719 L 17.34375 -9.582031 L 17.425781 -8.472656 L 17.34375 -7.445312 L 16.828125 -6.890625 L 16.117188 -6.453125 L 13.980469 -6.257812 Z M 10.890625 -6.296875 "/></g></g></g><g fill="#9dfff7" fill-opacity="1"><g transform="translate(142.628755, 147.625171)"><g><path d="M 2.96875 -1.148438 L 3.328125 -0.4375 L 4.59375 0.0390625 L 18.613281 -0.0390625 L 19.722656 -0.4375 L 20.15625 -1.148438 L 20.078125 -2.019531 L 20.117188 -2.8125 L 20.195312 -3.523438 L 20.078125 -4.394531 L 20.195312 -5.148438 L 19.679688 -6.019531 L 19.046875 -6.414062 L 18.175781 -6.296875 L 11.207031 -6.375 L 10.375 -6.730469 L 10.136719 -7.601562 L 10.175781 -9.070312 L 10.058594 -9.820312 L 10.097656 -10.691406 L 10.019531 -11.484375 L 10.097656 -12.316406 L 10.058594 -14.296875 L 10.175781 -15.40625 L 10.058594 -16.277344 L 10.175781 -17.105469 L 10.058594 -23.285156 L 10.136719 -24.15625 L 10.058594 -26.097656 L 9.664062 -27.285156 L 8.632812 -27.757812 L 4.515625 -27.679688 L 3.367188 -27.246094 L 2.851562 -26.175781 L 3.089844 -24.117188 L 3.007812 -23.363281 L 2.890625 -22.53125 L 3.007812 -21.742188 L 3.089844 -20.988281 L 2.96875 -20.117188 L 3.007812 -19.363281 L 2.929688 -18.574219 L 3.050781 -17.742188 L 2.929688 -17.027344 L 3.007812 -16.234375 L 2.890625 -15.484375 L 3.007812 -13.78125 L 2.890625 -13.027344 L 3.007812 -11.445312 L 2.890625 -10.652344 L 2.929688 -9.070312 L 3.007812 -8.355469 L 2.96875 -3.523438 L 3.050781 -2.730469 L 2.890625 -1.980469 Z M 2.96875 -1.148438 "/></g></g></g><g fill="#9dfff7" fill-opacity="1"><g transform="translate(163.932274, 147.625171)"><g><path d="M 14.808594 0.476562 L 17.027344 0.4375 L 19.402344 0.117188 L 22.375 -0.871094 L 23.679688 -1.585938 L 24.273438 -2.058594 L 25.027344 -2.414062 L 26.136719 -3.367188 L 26.652344 -4.078125 L 27.207031 -4.632812 L 28.949219 -7.285156 L 29.542969 -8.792969 L 29.859375 -10.296875 L 29.898438 -11.007812 L 30.097656 -11.800781 L 30.136719 -12.632812 L 30.292969 -13.78125 L 30.175781 -15.761719 L 29.898438 -17.382812 L 28.90625 -20.355469 L 28.15625 -21.820312 L 27.285156 -23.007812 L 26.175781 -24.234375 L 25.027344 -25.226562 L 24.117188 -25.859375 L 22.929688 -26.375 L 22.335938 -26.808594 L 19.285156 -27.757812 L 16.988281 -28.15625 L 15.917969 -28.195312 L 11.722656 -27.601562 L 8.75 -26.492188 L 8.15625 -26.058594 L 7.445312 -25.699219 L 6.097656 -24.710938 L 4.15625 -22.453125 L 2.929688 -20.355469 L 2.335938 -18.847656 L 1.664062 -15.800781 L 1.542969 -12.59375 L 1.664062 -11.761719 L 1.859375 -11.046875 L 1.941406 -10.296875 L 2.296875 -8.792969 L 4.117188 -5.1875 L 4.59375 -4.710938 L 5.109375 -4.078125 L 5.703125 -3.523438 L 6.136719 -3.007812 L 7.445312 -1.980469 L 10.535156 -0.394531 L 11.683594 0 L 12.554688 0.078125 L 13.980469 0.394531 Z M 17.027344 -6.535156 L 14.851562 -6.535156 L 13.980469 -6.652344 L 12.554688 -7.246094 L 11.917969 -7.601562 L 10.851562 -8.472656 L 10.335938 -9.027344 L 9.78125 -9.78125 L 9.582031 -10.414062 L 9.226562 -11.128906 L 8.910156 -12.59375 L 8.910156 -15.007812 L 9.109375 -15.722656 L 9.226562 -16.472656 L 9.542969 -17.1875 L 9.78125 -17.898438 L 10.730469 -19.167969 L 12.710938 -20.511719 L 13.226562 -20.710938 L 14.769531 -21.105469 L 15.878906 -21.1875 L 17.78125 -20.949219 L 18.492188 -20.789062 L 19.207031 -20.472656 L 20.433594 -19.601562 L 21.976562 -17.976562 L 22.453125 -16.472656 L 22.808594 -15.722656 L 22.929688 -15.007812 L 22.847656 -12.59375 L 22.53125 -11.128906 L 22.253906 -10.414062 L 21.820312 -9.703125 L 21.582031 -9.109375 L 21.027344 -8.472656 L 19.125 -7.167969 L 18.414062 -6.96875 L 17.820312 -6.691406 Z M 17.027344 -6.535156 "/></g></g></g><g fill="#9dfff7" fill-opacity="1"><g transform="translate(195.689569, 147.625171)"><g><path d="M 14.492188 0.476562 L 15.523438 0.515625 L 17.660156 0.316406 L 18.453125 0.160156 L 19.207031 0.117188 L 19.878906 -0.078125 L 22.808594 -1.347656 L 23.363281 -1.820312 L 24.671875 -2.652344 L 25.820312 -3.878906 L 27.085938 -5.742188 L 27.996094 -7.5625 L 28.511719 -9.265625 L 28.550781 -10.019531 L 28.789062 -10.8125 L 28.949219 -13.820312 L 28.828125 -14.613281 L 28.355469 -15.40625 L 27.207031 -15.761719 L 17.265625 -15.761719 L 16.039062 -15.324219 L 15.679688 -14.574219 L 15.601562 -11.601562 L 15.761719 -10.851562 L 16 -10.175781 L 16.75 -9.820312 L 17.503906 -9.820312 L 18.214844 -9.742188 L 20.59375 -9.859375 L 21.144531 -9.425781 L 21.304688 -8.75 L 20.988281 -8.117188 L 19.839844 -7.007812 L 19.207031 -6.691406 L 17.703125 -6.21875 L 16.910156 -6.097656 L 15.761719 -6.058594 L 14.53125 -6.136719 L 13.820312 -6.296875 L 13.109375 -6.574219 L 11.683594 -7.324219 L 10.492188 -8.277344 L 10.058594 -8.949219 L 9.742188 -9.621094 L 9.304688 -10.335938 L 9.027344 -11.089844 L 8.792969 -15.046875 L 9.226562 -16.472656 L 9.386719 -17.265625 L 9.980469 -18.730469 L 11.007812 -19.839844 L 12.316406 -20.75 L 12.988281 -21.066406 L 14.53125 -21.582031 L 15.640625 -21.621094 L 17.703125 -21.382812 L 18.453125 -21.1875 L 20.433594 -19.957031 L 20.828125 -19.324219 L 21.699219 -18.691406 L 22.570312 -18.296875 L 26.453125 -18.296875 L 27.207031 -18.375 L 27.878906 -18.613281 L 28.15625 -19.484375 L 26.886719 -22.414062 L 26.335938 -22.96875 L 25.34375 -24.234375 L 24.195312 -25.382812 L 21.503906 -27.046875 L 20.632812 -27.285156 L 19.996094 -27.5625 L 19.207031 -27.679688 L 18.335938 -27.917969 L 14.414062 -28.117188 L 12 -27.71875 L 8.988281 -26.652344 L 8.277344 -26.292969 L 6.296875 -24.949219 L 5.109375 -23.839844 L 4.59375 -23.164062 L 4.199219 -22.53125 L 3.605469 -21.976562 L 3.167969 -21.226562 L 1.941406 -18.214844 L 1.902344 -17.503906 L 1.464844 -15.761719 L 1.542969 -13.78125 L 1.464844 -12.671875 L 1.503906 -11.839844 L 2.179688 -8.792969 L 3.007812 -6.613281 L 3.445312 -5.859375 L 4.871094 -4.078125 L 5.980469 -2.929688 L 8.515625 -1.226562 L 9.226562 -0.871094 L 11.445312 -0.078125 L 13.660156 0.394531 Z M 14.492188 0.476562 "/></g></g></g><g fill="#9dfff7" fill-opacity="1"><g transform="translate(226.021354, 147.625171)"><g><path d="M 11.484375 0.316406 L 12.632812 0.4375 L 13.898438 0.394531 L 17.78125 -0.355469 L 19.839844 -1.464844 L 21.105469 -2.335938 L 22.214844 -3.605469 L 23.007812 -4.871094 L 23.324219 -5.582031 L 23.5625 -6.375 L 23.679688 -7.089844 L 23.71875 -9.542969 L 23.601562 -10.335938 L 23.402344 -11.089844 L 22.613281 -12.554688 L 21.660156 -13.78125 L 20.988281 -14.335938 L 18.890625 -15.285156 L 15.640625 -16.078125 L 11.640625 -16.59375 L 9.980469 -17.1875 L 9.386719 -17.503906 L 8.75 -18.136719 L 8.710938 -19.207031 L 8.832031 -20.234375 L 9.265625 -20.789062 L 9.941406 -21.304688 L 10.492188 -21.542969 L 11.207031 -21.699219 L 13.742188 -21.78125 L 14.613281 -21.464844 L 15.207031 -20.988281 L 16.511719 -19.601562 L 17.742188 -19.207031 L 20.355469 -19.125 L 21.066406 -19.207031 L 21.820312 -19.125 L 22.570312 -19.601562 L 22.929688 -20.355469 L 22.613281 -21.898438 L 21.976562 -23.324219 L 21.464844 -23.957031 L 21.066406 -24.589844 L 20.550781 -25.1875 L 18.019531 -26.929688 L 15.839844 -27.679688 L 15.007812 -27.839844 L 14.296875 -27.917969 L 13.425781 -28.117188 L 11.207031 -28.078125 L 8.078125 -27.441406 L 7.367188 -27.164062 L 6.730469 -26.769531 L 6.097656 -26.53125 L 5.304688 -26.058594 L 4.753906 -25.542969 L 4.039062 -25.066406 L 3.605469 -24.394531 L 3.089844 -23.878906 L 2.8125 -23.164062 L 2.414062 -22.53125 L 1.859375 -20.234375 L 1.902344 -17.582031 L 2.179688 -16.472656 L 2.691406 -15.085938 L 3.683594 -13.78125 L 4.792969 -12.75 L 6.175781 -11.917969 L 8.433594 -11.167969 L 9.859375 -10.851562 L 13.109375 -10.613281 L 13.820312 -10.492188 L 14.613281 -10.453125 L 16.039062 -9.859375 L 16.59375 -9.386719 L 16.789062 -8.355469 L 16.554688 -7.324219 L 15.917969 -6.773438 L 15.285156 -6.414062 L 13.820312 -5.980469 L 12.710938 -5.941406 L 11.523438 -6.019531 L 10.613281 -6.257812 L 10.019531 -6.535156 L 9.304688 -6.96875 L 8.710938 -7.523438 L 8.117188 -8.316406 L 7.324219 -8.632812 L 4.316406 -8.710938 L 3.523438 -8.632812 L 2.730469 -8.671875 L 1.941406 -8.316406 L 1.664062 -7.484375 L 1.742188 -6.613281 L 1.902344 -5.902344 L 2.535156 -4.316406 L 3.523438 -3.089844 L 4.671875 -1.941406 L 5.347656 -1.503906 L 8.195312 -0.199219 L 9.070312 -0.078125 L 9.820312 0.199219 Z M 11.484375 0.316406 "/></g></g></g><path stroke-linecap="butt" transform="matrix(0.75, 0, 0, 0.75, 114.732419, 105.374993)" fill="none" stroke-linejoin="miter" d="M 3.872399 52.416679 L 4.450524 53.625013 L 5.455733 54.104179 L 22.934901 53.895846 L 24.934901 53.625013 L 26.674484 52.942721 L 28.684901 51.781263 L 29.367193 51.255221 L 30.216151 50.468763 L 31.429693 48.713554 L 31.90886 47.723971 L 32.111985 46.817721 L 32.539068 45.760429 L 32.591151 41.53647 L 32.382818 40.541679 L 32.007818 39.432303 L 31.054693 37.578137 L 30.320318 36.687512 L 29.533859 35.890637 L 29.059901 34.729178 L 29.263026 33.671886 L 29.846359 32.614595 L 30.476568 31.713553 L 31.22136 27.921886 L 31.174485 26.390636 L 30.591151 24.427094 L 30.065109 23.421886 L 29.742193 22.432302 L 28.476568 20.739594 L 27.731776 19.994802 L 26.158859 18.885427 L 24.200526 17.828135 L 21.247401 17.145844 L 5.351566 17.041677 L 4.294274 17.520844 L 3.820316 18.630219 L 3.919274 20.895844 L 3.820316 22.432302 L 4.023441 25.963553 L 3.872399 27.072928 L 3.971358 28.182303 L 3.872399 29.187511 L 3.919274 30.291678 L 3.820316 31.302095 L 3.820316 35.515637 L 3.971358 36.625012 L 3.872399 37.63022 L 3.872399 39.744804 L 3.971358 40.750012 L 3.872399 45.078137 L 4.023441 47.244804 L 3.820316 50.401054 Z M 14.700525 31.34897 L 13.419275 30.927095 L 12.893233 29.869803 L 13.111983 28.968761 L 13.111983 27.973969 L 13.007817 26.968761 L 13.59115 26.067719 L 14.700525 25.484386 L 18.502609 25.640636 L 20.138026 25.963553 L 20.768234 26.390636 L 21.450526 27.125011 L 21.606776 28.552094 L 21.351567 30.140636 L 20.445317 30.979178 L 18.65365 31.34897 Z M 14.52865 45.609387 L 13.643233 45.182304 L 13.0599 44.072929 L 13.111983 43.171887 L 13.007817 42.166679 L 13.0599 41.119804 L 13.419275 40.166679 L 14.476567 39.640637 L 20.075525 39.640637 L 21.554692 39.895845 L 22.356776 40.479179 L 23.143234 41.22397 L 23.242192 42.69272 L 23.143234 44.072929 L 22.455734 44.807304 L 21.502609 45.390637 L 18.65365 45.661471 Z M 38.820318 52.463554 L 39.294277 53.421888 L 40.986985 54.052096 L 59.674486 53.947929 L 61.158862 53.421888 L 61.736987 52.463554 L 61.63282 51.307304 L 61.684903 50.250013 L 61.78907 49.296887 L 61.63282 48.135429 L 61.78907 47.140637 L 61.106778 45.968762 L 60.25782 45.442721 L 59.096361 45.609387 L 49.799486 45.505221 L 48.695319 45.026054 L 48.382819 43.869804 L 48.434902 41.906262 L 48.268236 40.901054 L 48.320319 39.744804 L 48.216152 38.687512 L 48.320319 37.578137 L 48.268236 34.932303 L 48.434902 33.463553 L 48.268236 32.307303 L 48.434902 31.197928 L 48.268236 22.958344 L 48.382819 21.786469 L 48.268236 19.208344 L 47.736986 17.62501 L 46.372402 16.989594 L 40.882819 17.09376 L 39.34636 17.671885 L 38.664068 19.104177 L 38.97136 21.848969 L 38.872402 22.843761 L 38.716152 23.953136 L 38.872402 25.010428 L 38.97136 26.015636 L 38.820318 27.177094 L 38.872402 28.182303 L 38.768235 29.239594 L 38.924485 30.343761 L 38.768235 31.302095 L 38.872402 32.354178 L 38.716152 33.34897 L 38.872402 35.63022 L 38.716152 36.625012 L 38.872402 38.739595 L 38.716152 39.796887 L 38.768235 41.906262 L 38.872402 42.864595 L 38.820318 49.296887 L 38.924485 50.354179 L 38.716152 51.359388 Z M 83.01303 54.630221 L 85.966155 54.578138 L 89.13803 54.156263 L 93.096364 52.838554 L 94.835947 51.885429 L 95.632822 51.255221 L 96.638031 50.776054 L 98.111989 49.515637 L 98.804697 48.562512 L 99.539072 47.822929 L 101.861989 44.281262 L 102.658864 42.281262 L 103.070323 40.270845 L 103.122406 39.31772 L 103.393239 38.260428 L 103.445323 37.151053 L 103.653656 35.63022 L 103.497406 32.989595 L 103.122406 30.822928 L 101.809906 26.864594 L 100.804697 24.906261 L 99.643239 23.317719 L 98.158864 21.682302 L 96.638031 20.369802 L 95.414072 19.515636 L 93.841155 18.833344 L 93.04428 18.255219 L 88.98178 16.989594 L 85.914071 16.463552 L 84.497405 16.411469 L 78.888029 17.197927 L 74.929696 18.677094 L 74.148446 19.260427 L 73.190112 19.734386 L 71.398446 21.052094 L 68.809904 24.067719 L 67.174487 26.864594 L 66.388029 28.864594 L 65.481778 32.937511 L 65.330737 37.203137 L 65.481778 38.312512 L 65.752612 39.265637 L 65.856779 40.270845 L 66.335945 42.281262 L 68.75782 47.078137 L 69.388029 47.723971 L 70.07032 48.562512 L 70.872404 49.296887 L 71.450529 49.989596 L 73.190112 51.359388 L 77.315113 53.473971 L 78.835946 54.000013 L 79.997404 54.104179 L 81.903655 54.526054 Z M 85.966155 45.286471 L 83.065113 45.286471 L 81.903655 45.130221 L 79.997404 44.333345 L 79.158863 43.869804 L 77.731779 42.69272 L 77.044279 41.958345 L 76.309904 40.953137 L 76.039071 40.114595 L 75.565112 39.16147 L 75.153654 37.203137 L 75.153654 33.994803 L 75.408862 33.041678 L 75.565112 32.03647 L 75.986988 31.078136 L 76.309904 30.140636 L 77.575529 28.453136 L 80.216154 26.645844 L 80.898446 26.390636 L 82.960946 25.859386 L 84.434905 25.755219 L 86.971363 26.067719 L 87.924488 26.286469 L 88.877613 26.697928 L 90.518238 27.859386 L 92.565114 30.020845 L 93.20053 32.03647 L 93.674489 33.041678 L 93.841155 33.994803 L 93.726572 37.203137 L 93.315114 39.16147 L 92.940114 40.114595 L 92.361989 41.057304 L 92.039072 41.859387 L 91.304697 42.69272 L 88.76303 44.447929 L 87.820322 44.708345 L 87.023447 45.078137 Z M 124.934907 54.630221 L 126.309907 54.682304 L 129.158866 54.427096 L 130.216158 54.208346 L 131.221366 54.156263 L 132.111991 53.895846 L 136.018241 52.208346 L 136.768241 51.578138 L 138.507825 50.468763 L 140.039075 48.833346 L 141.726575 46.343762 L 142.940117 43.921887 L 143.622409 41.651054 L 143.674492 40.645845 L 143.997409 39.588553 L 144.205742 35.56772 L 144.049492 34.520845 L 143.419284 33.463553 L 141.882825 32.989595 L 128.632824 32.989595 L 126.997408 33.56772 L 126.518241 34.572928 L 126.414074 38.531262 L 126.622407 39.53647 L 126.945324 40.427095 L 127.950533 40.901054 L 128.940116 40.901054 L 129.893241 41.00522 L 133.065116 40.84897 L 133.799491 41.432304 L 134.018241 42.333345 L 133.596366 43.171887 L 132.059908 44.656262 L 131.221366 45.078137 L 129.210949 45.713554 L 128.153658 45.864596 L 126.622407 45.916679 L 124.981782 45.812512 L 124.044282 45.609387 L 123.091157 45.234387 L 121.179699 44.229179 L 119.596365 42.963554 L 119.013032 42.062512 L 118.601574 41.171887 L 118.023449 40.218762 L 117.648449 39.213553 L 117.325532 33.94272 L 117.908865 32.03647 L 118.127615 30.979178 L 118.914074 29.031261 L 120.294282 27.546886 L 122.033866 26.338553 L 122.919282 25.911469 L 124.981782 25.229178 L 126.466157 25.177094 L 129.210949 25.484386 L 130.216158 25.755219 L 132.861991 27.395844 L 133.377616 28.229178 L 134.549491 29.083344 L 135.71095 29.609386 L 140.877617 29.609386 L 141.882825 29.494803 L 142.783867 29.187511 L 143.14845 28.026053 L 141.455742 24.119802 L 140.721367 23.369802 L 139.393242 21.682302 L 137.872408 20.151052 L 134.278658 17.932302 L 133.1172 17.62501 L 132.268241 17.25001 L 131.221366 17.09376 L 130.049491 16.770844 L 124.830741 16.515635 L 121.606782 17.041677 L 117.596365 18.458344 L 116.64324 18.93751 L 114.002615 20.739594 L 112.414073 22.213552 L 111.731782 23.114594 L 111.20574 23.953136 L 110.419281 24.697928 L 109.835948 25.703136 L 108.200531 29.713553 L 108.148448 30.666678 L 107.570323 32.989595 L 107.669281 35.63022 L 107.570323 37.09897 L 107.622406 38.208345 L 108.507823 42.281262 L 109.617198 45.182304 L 110.200531 46.187512 L 112.106782 48.562512 L 113.575532 50.093763 L 116.966157 52.364596 L 117.908865 52.838554 L 120.872407 53.895846 L 123.825532 54.526054 Z M 161.367201 54.427096 L 162.898452 54.578138 L 164.585952 54.526054 L 169.757827 53.520846 L 172.502619 52.041679 L 174.190119 50.880221 L 175.674494 49.192721 L 176.731786 47.505221 L 177.158869 46.546887 L 177.466161 45.505221 L 177.622411 44.552095 L 177.674494 41.276054 L 177.518244 40.218762 L 177.257827 39.213553 L 176.200536 37.265637 L 174.940119 35.63022 L 174.039077 34.885428 L 171.242202 33.619803 L 166.908868 32.562511 L 161.570326 31.88022 L 159.356785 31.078136 L 158.570326 30.666678 L 157.71616 29.81772 L 157.664076 28.385428 L 157.820326 27.020844 L 158.398451 26.286469 L 159.304701 25.588553 L 160.039076 25.281261 L 160.992201 25.062511 L 164.367202 24.958344 L 165.52866 25.380219 L 166.330743 26.015636 L 168.070327 27.859386 L 169.705744 28.385428 L 173.184911 28.500011 L 174.138036 28.385428 L 175.143244 28.500011 L 176.153661 27.859386 L 176.627619 26.864594 L 176.200536 24.802094 L 175.351577 22.895844 L 174.669286 22.057302 L 174.138036 21.208344 L 173.455744 20.421886 L 170.080744 18.098969 L 167.164077 17.09376 L 166.05991 16.885427 L 165.117202 16.770844 L 163.955743 16.515635 L 160.992201 16.567719 L 156.830743 17.401052 L 155.872409 17.776052 L 155.023451 18.307302 L 154.184909 18.630219 L 153.127618 19.260427 L 152.393243 19.942719 L 151.440117 20.572927 L 150.861992 21.479177 L 150.164076 22.161469 L 149.804701 23.114594 L 149.273451 23.953136 L 148.539076 27.020844 L 148.591159 30.552095 L 148.950534 32.03647 L 149.648451 33.88022 L 150.960951 35.63022 L 152.445326 36.994803 L 154.289076 38.104178 L 157.294285 39.109387 L 159.200535 39.53647 L 163.533868 39.843762 L 164.486993 40.015637 L 165.52866 40.06772 L 167.43491 40.84897 L 168.174494 41.484387 L 168.440119 42.864595 L 168.12241 44.229179 L 167.283868 44.973971 L 166.429702 45.442721 L 164.486993 46.031262 L 163.002618 46.083346 L 161.419285 45.968762 L 160.205743 45.661471 L 159.408868 45.286471 L 158.46616 44.708345 L 157.664076 43.968762 L 156.877618 42.91147 L 155.820326 42.489595 L 151.799492 42.385429 L 150.757826 42.489595 L 149.700534 42.437512 L 148.643242 42.91147 L 148.268242 44.020845 L 148.372409 45.182304 L 148.591159 46.135429 L 149.429701 48.250012 L 150.757826 49.885429 L 152.278659 51.411471 L 153.179701 51.989596 L 156.981784 53.739596 L 158.143243 53.895846 L 159.148451 54.255221 Z M 161.367201 54.427096 " stroke="#3d4f52" stroke-width="1.980101" stroke-opacity="1" stroke-miterlimit="4"/><g fill="#9dfff7" fill-opacity="1"><g transform="translate(251.283376, 147.625171)"><g/></g></g><g fill="#9dfff7" fill-opacity="1"><g transform="translate(170.799003, 202.375168)"><g><path d="M 10.574219 0.476562 L 14.097656 0.515625 L 15.957031 0.277344 L 17.503906 -0.199219 L 18.808594 -1.03125 L 19.996094 -2.097656 L 21.027344 -3.246094 L 21.699219 -4.753906 L 22.136719 -6.21875 L 22.335938 -7.839844 L 22.414062 -10.652344 L 22.808594 -11.722656 L 23.640625 -12.039062 L 24.511719 -12.554688 L 24.910156 -13.304688 L 24.910156 -14.808594 L 24.789062 -15.523438 L 24.828125 -16.75 L 24.433594 -17.859375 L 23.71875 -18.253906 L 22.929688 -18.375 L 22.097656 -18.296875 L 20.078125 -18.296875 L 18.96875 -18.175781 L 18.175781 -18.296875 L 17.382812 -18.296875 L 16.59375 -17.859375 L 16.117188 -17.1875 L 15.957031 -7.644531 L 15.128906 -6.375 L 14.414062 -5.941406 L 13.703125 -5.582031 L 12.511719 -5.425781 L 11.363281 -5.625 L 10.652344 -5.859375 L 10.019531 -6.335938 L 9.464844 -6.96875 L 9.070312 -7.601562 L 8.988281 -8.910156 L 9.109375 -9.980469 L 9.464844 -10.8125 L 9.898438 -11.324219 L 10.574219 -11.839844 L 11.40625 -12.238281 L 12.472656 -12.394531 L 13.464844 -12.710938 L 13.820312 -13.542969 L 13.742188 -16.949219 L 13.503906 -17.78125 L 12.472656 -18.296875 L 11.363281 -18.574219 L 10.574219 -19.007812 L 10.296875 -20.117188 L 10.375 -21.226562 L 10.890625 -21.820312 L 11.484375 -22.214844 L 12.554688 -22.375 L 13.621094 -22.175781 L 14.335938 -21.742188 L 15.085938 -21.226562 L 15.957031 -20.871094 L 19.5625 -20.910156 L 20.75 -21.144531 L 21.105469 -21.976562 L 20.75 -23.601562 L 20.394531 -24.355469 L 19.957031 -25.027344 L 18.96875 -26.136719 L 17.503906 -27.207031 L 16.828125 -27.523438 L 14.929688 -28.117188 L 12.472656 -28.3125 L 10.535156 -28.195312 L 8.949219 -27.800781 L 7.484375 -27.164062 L 6.851562 -26.808594 L 5.542969 -25.738281 L 5.027344 -25.144531 L 4.710938 -24.589844 L 4.199219 -23.917969 L 3.878906 -23.285156 L 3.722656 -22.414062 L 3.523438 -21.699219 L 3.523438 -19.246094 L 4.039062 -17.859375 L 4.710938 -16.511719 L 4.792969 -15.800781 L 4.515625 -15.007812 L 4 -14.335938 L 3.484375 -13.820312 L 2.296875 -11.839844 L 1.859375 -10.375 L 1.78125 -8.394531 L 1.941406 -6.535156 L 2.414062 -5.070312 L 2.8125 -4.277344 L 3.722656 -3.050781 L 4.753906 -1.902344 L 5.425781 -1.386719 L 6.691406 -0.632812 L 7.40625 -0.394531 L 8.195312 -0.078125 L 9.820312 0.394531 Z M 10.574219 0.476562 "/></g></g></g><path stroke-linecap="butt" transform="matrix(0.75, 0, 0, 0.75, 114.732419, 105.374993)" fill="none" stroke-linejoin="miter" d="M 86.523447 127.630226 L 91.216155 127.682309 L 93.705739 127.375018 L 95.752614 126.739601 L 97.507822 125.635434 L 99.080739 124.203142 L 100.460947 122.666684 L 101.361989 120.656267 L 101.940114 118.713559 L 102.200531 116.546892 L 102.304698 112.796892 L 102.830739 111.375017 L 103.940114 110.953142 L 105.101573 110.265641 L 105.627614 109.260433 L 105.627614 107.250016 L 105.471364 106.296891 L 105.523448 104.661474 L 104.997406 103.192724 L 104.044281 102.661474 L 102.997406 102.494808 L 101.888031 102.609391 L 99.195322 102.609391 L 97.710947 102.765641 L 96.653656 102.609391 L 95.601572 102.609391 L 94.54428 103.192724 L 93.908864 104.078141 L 93.705739 116.8021 L 92.596364 118.505225 L 91.643239 119.08335 L 90.690113 119.546892 L 89.101572 119.77085 L 87.580738 119.500017 L 86.627613 119.187517 L 85.778655 118.557309 L 85.04428 117.70835 L 84.51303 116.869809 L 84.408863 115.1146 L 84.565113 113.697933 L 85.04428 112.588558 L 85.622405 111.906267 L 86.523447 111.20835 L 87.632822 110.682308 L 89.049488 110.473975 L 90.377613 110.046891 L 90.85678 108.942725 L 90.736988 104.401058 L 90.429697 103.291683 L 89.049488 102.609391 L 87.580738 102.239599 L 86.523447 101.656266 L 86.148447 100.177099 L 86.252613 98.703141 L 86.934905 97.906266 L 87.736988 97.375016 L 89.153655 97.171891 L 90.585947 97.427099 L 91.539072 98.010432 L 92.54428 98.703141 L 93.705739 99.166682 L 98.497406 99.119807 L 100.085947 98.807307 L 100.559906 97.697932 L 100.085947 95.536474 L 99.606781 94.526057 L 99.028656 93.625015 L 97.710947 92.156265 L 95.752614 90.723974 L 94.861989 90.302098 L 92.32553 89.51564 L 89.049488 89.244807 L 86.471363 89.411473 L 84.35678 89.937515 L 82.398446 90.776057 L 81.559905 91.255224 L 79.809904 92.687515 L 79.122404 93.473974 L 78.700529 94.208349 L 78.018238 95.10939 L 77.591154 95.958349 L 77.382821 97.119807 L 77.127613 98.062516 L 77.127613 101.333349 L 77.809904 103.192724 L 78.700529 104.984391 L 78.815113 105.937516 L 78.440113 106.994808 L 77.757821 107.885433 L 77.059904 108.567725 L 75.492196 111.20835 L 74.908862 113.166683 L 74.794279 115.812517 L 75.013029 118.286475 L 75.643237 120.244809 L 76.174488 121.302101 L 77.382821 122.937517 L 78.763029 124.458351 L 79.653654 125.156267 L 81.341155 126.151059 L 82.29428 126.473976 L 83.351571 126.895851 L 85.518238 127.526059 Z M 86.523447 127.630226 " stroke="#3d4f52" stroke-width="1.980101" stroke-opacity="1" stroke-miterlimit="4"/><g fill="#9dfff7" fill-opacity="1"><g transform="translate(196.96697, 202.375168)"><g/></g></g><g fill="#9dfff7" fill-opacity="1"><g transform="translate(123.396662, 257.125164)"><g><path d="M 23.363281 -0.632812 L 24.511719 -0.117188 L 25.542969 0.199219 L 26.453125 -0.238281 L 26.808594 -1.070312 L 27.007812 -11.839844 L 26.847656 -12.949219 L 26.929688 -13.820312 L 26.769531 -18.574219 L 26.886719 -20.15625 L 26.808594 -20.910156 L 26.808594 -22.492188 L 26.96875 -23.285156 L 26.886719 -24.472656 L 26.96875 -26.53125 L 26.492188 -27.246094 L 25.621094 -27.640625 L 24.828125 -27.71875 L 24.078125 -27.71875 L 23.207031 -27.640625 L 22.375 -27.757812 L 21.660156 -27.679688 L 20.871094 -27.71875 L 19.917969 -27.324219 L 19.523438 -26.492188 L 19.484375 -19.285156 L 19.640625 -18.453125 L 19.640625 -17.703125 L 19.484375 -16.871094 L 19.523438 -15.285156 L 19.324219 -14.652344 L 18.769531 -14.808594 L 17.027344 -16.59375 L 16.433594 -17.066406 L 15.046875 -18.492188 L 14.414062 -18.96875 L 13.980469 -19.523438 L 13.148438 -20.394531 L 11.917969 -21.421875 L 11.484375 -22.019531 L 10.730469 -22.53125 L 10.335938 -23.125 L 9.664062 -23.601562 L 9.148438 -24.273438 L 7.007812 -26.453125 L 5.425781 -27.523438 L 4.355469 -27.839844 L 3.40625 -27.363281 L 2.890625 -26.609375 L 2.96875 -21.066406 L 2.890625 -20.273438 L 3.007812 -18.652344 L 2.929688 -17.9375 L 2.96875 -17.105469 L 2.851562 -16.277344 L 3.007812 -10.613281 L 2.929688 -9.898438 L 2.929688 -9.148438 L 2.851562 -8.277344 L 2.851562 -7.523438 L 2.96875 -6.691406 L 2.929688 -5.070312 L 3.007812 -4.277344 L 2.890625 -2.773438 L 3.007812 -1.980469 L 3.007812 -1.226562 L 3.367188 -0.355469 L 4.117188 0.078125 L 5.464844 0 L 7.445312 0.117188 L 8.277344 0 L 9.1875 0.078125 L 9.980469 -0.316406 L 10.335938 -1.109375 L 10.21875 -1.902344 L 10.335938 -11.601562 L 10.175781 -12.433594 L 10.574219 -12.910156 L 11.089844 -12.789062 L 16.75 -7.246094 L 17.382812 -6.730469 L 21.226562 -2.890625 L 21.742188 -2.257812 L 22.375 -1.742188 L 22.847656 -1.148438 Z M 23.363281 -0.632812 "/></g></g></g><g fill="#9dfff7" fill-opacity="1"><g transform="translate(153.253277, 257.125164)"><g><path d="M 14.808594 0.476562 L 17.027344 0.4375 L 19.402344 0.117188 L 22.375 -0.871094 L 23.679688 -1.585938 L 24.273438 -2.058594 L 25.027344 -2.414062 L 26.136719 -3.367188 L 26.652344 -4.078125 L 27.207031 -4.632812 L 28.949219 -7.285156 L 29.542969 -8.792969 L 29.859375 -10.296875 L 29.898438 -11.007812 L 30.097656 -11.800781 L 30.136719 -12.632812 L 30.292969 -13.78125 L 30.175781 -15.761719 L 29.898438 -17.382812 L 28.90625 -20.355469 L 28.15625 -21.820312 L 27.285156 -23.007812 L 26.175781 -24.234375 L 25.027344 -25.226562 L 24.117188 -25.859375 L 22.929688 -26.375 L 22.335938 -26.808594 L 19.285156 -27.757812 L 16.988281 -28.15625 L 15.917969 -28.195312 L 11.722656 -27.601562 L 8.75 -26.492188 L 8.15625 -26.058594 L 7.445312 -25.699219 L 6.097656 -24.710938 L 4.15625 -22.453125 L 2.929688 -20.355469 L 2.335938 -18.847656 L 1.664062 -15.800781 L 1.542969 -12.59375 L 1.664062 -11.761719 L 1.859375 -11.046875 L 1.941406 -10.296875 L 2.296875 -8.792969 L 4.117188 -5.1875 L 4.59375 -4.710938 L 5.109375 -4.078125 L 5.703125 -3.523438 L 6.136719 -3.007812 L 7.445312 -1.980469 L 10.535156 -0.394531 L 11.683594 0 L 12.554688 0.078125 L 13.980469 0.394531 Z M 17.027344 -6.535156 L 14.851562 -6.535156 L 13.980469 -6.652344 L 12.554688 -7.246094 L 11.917969 -7.601562 L 10.851562 -8.472656 L 10.335938 -9.027344 L 9.78125 -9.78125 L 9.582031 -10.414062 L 9.226562 -11.128906 L 8.910156 -12.59375 L 8.910156 -15.007812 L 9.109375 -15.722656 L 9.226562 -16.472656 L 9.542969 -17.1875 L 9.78125 -17.898438 L 10.730469 -19.167969 L 12.710938 -20.511719 L 13.226562 -20.710938 L 14.769531 -21.105469 L 15.878906 -21.1875 L 17.78125 -20.949219 L 18.492188 -20.789062 L 19.207031 -20.472656 L 20.433594 -19.601562 L 21.976562 -17.976562 L 22.453125 -16.472656 L 22.808594 -15.722656 L 22.929688 -15.007812 L 22.847656 -12.59375 L 22.53125 -11.128906 L 22.253906 -10.414062 L 21.820312 -9.703125 L 21.582031 -9.109375 L 21.027344 -8.472656 L 19.125 -7.167969 L 18.414062 -6.96875 L 17.820312 -6.691406 Z M 17.027344 -6.535156 "/></g></g></g><g fill="#9dfff7" fill-opacity="1"><g transform="translate(185.010573, 257.125164)"><g><path d="M 7.601562 -1.226562 L 7.921875 -0.394531 L 8.75 0 L 9.503906 -0.078125 L 10.296875 0 L 11.046875 -0.078125 L 13.503906 -0.078125 L 14.296875 -0.394531 L 14.613281 -1.1875 L 14.574219 -1.941406 L 14.652344 -2.851562 L 14.613281 -4.433594 L 14.492188 -5.109375 L 14.613281 -5.941406 L 14.691406 -8.355469 L 14.613281 -9.070312 L 14.730469 -10.730469 L 14.574219 -18.613281 L 14.691406 -19.402344 L 14.613281 -20.273438 L 14.929688 -20.988281 L 15.800781 -21.34375 L 16.472656 -21.382812 L 17.265625 -21.34375 L 17.976562 -21.421875 L 20.15625 -21.382812 L 21.066406 -21.742188 L 21.464844 -22.53125 L 21.382812 -23.363281 L 21.464844 -26.609375 L 21.066406 -27.402344 L 20.273438 -27.800781 L 19.324219 -27.71875 L 18.691406 -27.800781 L 17.9375 -27.800781 L 17.066406 -27.679688 L 16.277344 -27.679688 L 15.484375 -27.757812 L 14.691406 -27.757812 L 13.78125 -27.640625 L 1.980469 -27.71875 L 1.109375 -27.324219 L 0.710938 -26.53125 L 0.671875 -22.570312 L 1.109375 -21.699219 L 1.902344 -21.304688 L 2.929688 -21.421875 L 6.453125 -21.382812 L 7.167969 -20.949219 L 7.5625 -20.195312 L 7.683594 -15.839844 L 7.5625 -14.613281 L 7.644531 -13.859375 L 7.5625 -13.066406 L 7.5625 -11.484375 L 7.683594 -10.335938 L 7.523438 -9.148438 L 7.5625 -8.355469 L 7.523438 -7.523438 L 7.644531 -5.109375 L 7.5625 -4.316406 Z M 7.601562 -1.226562 "/></g></g></g><g fill="#9dfff7" fill-opacity="1"><g transform="translate(207.145642, 257.125164)"><g><path d="M 2.851562 -1.148438 L 3.367188 -0.394531 L 4.117188 0.0390625 L 13.066406 -0.0390625 L 13.78125 0.078125 L 16.195312 -0.0390625 L 18.613281 0.117188 L 19.363281 0.0390625 L 20.195312 -0.355469 L 20.550781 -1.109375 L 20.632812 -1.859375 L 20.59375 -4.316406 L 20.671875 -5.070312 L 20.15625 -5.859375 L 18.96875 -6.257812 L 13.742188 -6.335938 L 12.988281 -6.21875 L 12.117188 -6.296875 L 11.246094 -6.21875 L 10.414062 -6.691406 L 10.058594 -7.921875 L 10.097656 -9.859375 L 10.453125 -10.691406 L 11.167969 -11.128906 L 12.710938 -11.128906 L 13.503906 -11.207031 L 15.601562 -11.089844 L 16.671875 -11.167969 L 17.503906 -11.089844 L 18.214844 -11.128906 L 19.007812 -11.5625 L 19.402344 -12.316406 L 19.484375 -15.445312 L 19.402344 -16.234375 L 19.046875 -16.988281 L 18.375 -17.425781 L 16.789062 -17.464844 L 16 -17.382812 L 15.167969 -17.382812 L 14.257812 -17.464844 L 11.128906 -17.425781 L 10.453125 -17.859375 L 9.980469 -18.574219 L 9.898438 -19.800781 L 10.296875 -20.949219 L 11.523438 -21.304688 L 19.125 -21.34375 L 19.957031 -21.78125 L 20.394531 -22.492188 L 20.316406 -24.117188 L 20.195312 -24.867188 L 20.234375 -25.738281 L 20.355469 -26.492188 L 19.957031 -27.285156 L 19.125 -27.640625 L 15.957031 -27.679688 L 15.246094 -27.601562 L 14.453125 -27.71875 L 12.710938 -27.640625 L 11.917969 -27.71875 L 10.375 -27.679688 L 9.664062 -27.757812 L 4.476562 -27.640625 L 3.328125 -27.363281 L 2.929688 -26.492188 L 3.007812 -24.910156 L 2.851562 -23.761719 L 3.007812 -21.742188 L 2.929688 -20.910156 L 3.007812 -20.195312 L 3.007812 -13.109375 L 2.890625 -12.277344 L 3.007812 -10.730469 L 2.929688 -9.148438 L 3.050781 -8.316406 L 2.96875 -7.445312 L 3.007812 -6.691406 L 2.890625 -5.980469 L 2.96875 -5.070312 L 2.96875 -4.277344 L 3.050781 -2.730469 L 3.007812 -1.941406 Z M 2.851562 -1.148438 "/></g></g></g><g fill="#9dfff7" fill-opacity="1"><g transform="translate(229.835086, 257.125164)"><g><path d="M 11.484375 0.316406 L 12.632812 0.4375 L 13.898438 0.394531 L 17.78125 -0.355469 L 19.839844 -1.464844 L 21.105469 -2.335938 L 22.214844 -3.605469 L 23.007812 -4.871094 L 23.324219 -5.582031 L 23.5625 -6.375 L 23.679688 -7.089844 L 23.71875 -9.542969 L 23.601562 -10.335938 L 23.402344 -11.089844 L 22.613281 -12.554688 L 21.660156 -13.78125 L 20.988281 -14.335938 L 18.890625 -15.285156 L 15.640625 -16.078125 L 11.640625 -16.59375 L 9.980469 -17.1875 L 9.386719 -17.503906 L 8.75 -18.136719 L 8.710938 -19.207031 L 8.832031 -20.234375 L 9.265625 -20.789062 L 9.941406 -21.304688 L 10.492188 -21.542969 L 11.207031 -21.699219 L 13.742188 -21.78125 L 14.613281 -21.464844 L 15.207031 -20.988281 L 16.511719 -19.601562 L 17.742188 -19.207031 L 20.355469 -19.125 L 21.066406 -19.207031 L 21.820312 -19.125 L 22.570312 -19.601562 L 22.929688 -20.355469 L 22.613281 -21.898438 L 21.976562 -23.324219 L 21.464844 -23.957031 L 21.066406 -24.589844 L 20.550781 -25.1875 L 18.019531 -26.929688 L 15.839844 -27.679688 L 15.007812 -27.839844 L 14.296875 -27.917969 L 13.425781 -28.117188 L 11.207031 -28.078125 L 8.078125 -27.441406 L 7.367188 -27.164062 L 6.730469 -26.769531 L 6.097656 -26.53125 L 5.304688 -26.058594 L 4.753906 -25.542969 L 4.039062 -25.066406 L 3.605469 -24.394531 L 3.089844 -23.878906 L 2.8125 -23.164062 L 2.414062 -22.53125 L 1.859375 -20.234375 L 1.902344 -17.582031 L 2.179688 -16.472656 L 2.691406 -15.085938 L 3.683594 -13.78125 L 4.792969 -12.75 L 6.175781 -11.917969 L 8.433594 -11.167969 L 9.859375 -10.851562 L 13.109375 -10.613281 L 13.820312 -10.492188 L 14.613281 -10.453125 L 16.039062 -9.859375 L 16.59375 -9.386719 L 16.789062 -8.355469 L 16.554688 -7.324219 L 15.917969 -6.773438 L 15.285156 -6.414062 L 13.820312 -5.980469 L 12.710938 -5.941406 L 11.523438 -6.019531 L 10.613281 -6.257812 L 10.019531 -6.535156 L 9.304688 -6.96875 L 8.710938 -7.523438 L 8.117188 -8.316406 L 7.324219 -8.632812 L 4.316406 -8.710938 L 3.523438 -8.632812 L 2.730469 -8.671875 L 1.941406 -8.316406 L 1.664062 -7.484375 L 1.742188 -6.613281 L 1.902344 -5.902344 L 2.535156 -4.316406 L 3.523438 -3.089844 L 4.671875 -1.941406 L 5.347656 -1.503906 L 8.195312 -0.199219 L 9.070312 -0.078125 L 9.820312 0.199219 Z M 11.484375 0.316406 "/></g></g></g><path stroke-linecap="butt" transform="matrix(0.75, 0, 0, 0.75, 114.732419, 105.374993)" fill="none" stroke-linejoin="miter" d="M 40.37761 199.151064 L 41.898444 199.843772 L 43.273444 200.255231 L 44.486985 199.677106 L 44.966152 198.567731 L 45.22136 184.208355 L 45.018235 182.739605 L 45.117194 181.567729 L 44.914069 175.239604 L 45.06511 173.125021 L 44.966152 172.119812 L 44.966152 170.005229 L 45.169277 168.958354 L 45.06511 167.37502 L 45.169277 164.630228 L 44.539069 163.671895 L 43.37761 163.145853 L 42.320319 163.041687 L 41.31511 163.041687 L 40.153652 163.145853 L 39.049485 162.989603 L 38.106777 163.09377 L 37.049485 163.041687 L 35.773443 163.572937 L 35.247401 164.677103 L 35.195318 174.281271 L 35.414068 175.390646 L 35.414068 176.395854 L 35.195318 177.505229 L 35.247401 179.619813 L 34.986985 180.458354 L 34.25261 180.250021 L 31.919276 177.880229 L 31.132818 177.250021 L 29.278651 175.338562 L 28.440109 174.708354 L 27.856776 173.973979 L 26.747401 172.812521 L 25.111984 171.432312 L 24.533859 170.645854 L 23.528651 169.953145 L 22.997401 169.166687 L 22.096359 168.536479 L 21.414067 167.630229 L 18.565109 164.729187 L 16.450525 163.302103 L 15.033858 162.885437 L 13.757817 163.520853 L 13.075525 164.510437 L 13.174483 171.911479 L 13.075525 172.968771 L 13.226567 175.135437 L 13.1224 176.088562 L 13.174483 177.197938 L 13.023442 178.307313 L 13.226567 185.843771 L 13.1224 186.802105 L 13.1224 187.807313 L 13.023442 188.963563 L 13.023442 189.968772 L 13.174483 191.078147 L 13.1224 193.244814 L 13.226567 194.302105 L 13.075525 196.302105 L 13.226567 197.359397 L 13.226567 198.364606 L 13.705733 199.520856 L 14.710942 200.104189 L 16.502609 200.000022 L 19.143234 200.156272 L 20.252609 200.000022 L 21.466151 200.104189 L 22.523442 199.572939 L 22.997401 198.515647 L 22.846359 197.458356 L 22.997401 184.531271 L 22.794276 183.421896 L 23.320317 182.791688 L 24.002609 182.947938 L 31.559901 190.333355 L 32.398443 191.026063 L 37.513027 196.145855 L 38.210943 196.994814 L 39.049485 197.677106 L 39.679693 198.463564 Z M 68.773445 200.630231 L 71.726571 200.578147 L 74.898446 200.156272 L 78.856779 198.838564 L 80.596363 197.885439 L 81.398446 197.255231 L 82.403655 196.776064 L 83.872405 195.515647 L 84.565113 194.562522 L 85.299488 193.822939 L 87.622405 190.281272 L 88.41928 188.281272 L 88.835947 186.270855 L 88.882822 185.31773 L 89.153655 184.260438 L 89.205738 183.151063 L 89.414072 181.630229 L 89.257822 178.989604 L 88.882822 176.822938 L 87.570322 172.864604 L 86.565113 170.90627 L 85.403655 169.317729 L 83.924488 167.682312 L 82.403655 166.369812 L 81.174488 165.515645 L 79.601571 164.833353 L 78.804696 164.255228 L 74.742196 162.989603 L 71.674487 162.463562 L 70.25782 162.411478 L 64.648445 163.197937 L 60.69532 164.677103 L 59.908861 165.260437 L 58.955736 165.734395 L 57.16407 167.052104 L 54.570319 170.067729 L 52.934903 172.864604 L 52.148444 174.864604 L 51.242194 178.937521 L 51.091153 183.203146 L 51.242194 184.312521 L 51.513028 185.265646 L 51.617194 186.270855 L 52.096361 188.281272 L 54.518236 193.078147 L 55.148444 193.72398 L 55.835945 194.562522 L 56.63282 195.296897 L 57.210945 195.989605 L 58.955736 197.359397 L 63.080737 199.473981 L 64.60157 200.000022 L 65.75782 200.104189 L 67.669279 200.526064 Z M 71.726571 191.28648 L 68.825529 191.28648 L 67.669279 191.13023 L 65.75782 190.333355 L 64.919278 189.869813 L 63.492195 188.69273 L 62.809903 187.958355 L 62.07032 186.953147 L 61.804695 186.114605 L 61.325528 185.16148 L 60.91407 183.203146 L 60.91407 179.994813 L 61.169278 179.041688 L 61.325528 178.036479 L 61.752612 177.078146 L 62.07032 176.140646 L 63.335945 174.453146 L 65.97657 172.645854 L 66.66407 172.390646 L 68.72657 171.859396 L 70.19532 171.755229 L 72.731779 172.067729 L 73.684904 172.286479 L 74.643237 172.697937 L 76.278654 173.859396 L 78.325529 176.020854 L 78.960946 178.036479 L 79.434904 179.041688 L 79.601571 179.994813 L 79.486988 183.203146 L 79.075529 185.16148 L 78.700529 186.114605 L 78.122404 187.057313 L 77.799488 187.859397 L 77.065113 188.69273 L 74.523446 190.447938 L 73.585946 190.708355 L 72.783862 191.078147 Z M 101.502614 198.364606 L 101.929698 199.473981 L 103.039073 200.000022 L 104.044281 199.895856 L 105.101573 200.000022 L 106.106781 199.895856 L 109.377615 199.895856 L 110.434906 199.473981 L 110.846365 198.416689 L 110.794281 197.411481 L 110.914073 196.197939 L 110.846365 194.083355 L 110.695323 193.19273 L 110.846365 192.083355 L 110.966156 188.864605 L 110.846365 187.906272 L 111.01824 185.69273 L 110.794281 175.187521 L 110.966156 174.130229 L 110.846365 172.968771 L 111.273448 172.015646 L 112.434907 171.536479 L 113.335948 171.484395 L 114.39324 171.536479 L 115.346365 171.432312 L 118.247407 171.484395 L 119.460949 171.010437 L 119.98699 169.953145 L 119.882824 168.84377 L 119.98699 164.510437 L 119.460949 163.46877 L 118.403657 162.93752 L 117.138032 163.041687 L 116.289073 162.93752 L 115.283865 162.93752 L 114.122407 163.09377 L 113.065115 163.09377 L 112.023448 162.989603 L 110.966156 162.989603 L 109.742198 163.145853 L 94.01303 163.041687 L 92.851572 163.572937 L 92.32553 164.630228 L 92.273447 169.901062 L 92.851572 171.06252 L 93.908864 171.588562 L 95.278655 171.432312 L 99.981781 171.484395 L 100.924489 172.067729 L 101.450531 173.072937 L 101.617198 178.885438 L 101.450531 180.520854 L 101.565114 181.515646 L 101.450531 182.572938 L 101.450531 184.687521 L 101.617198 186.218771 L 101.398448 187.807313 L 101.450531 188.864605 L 101.398448 189.968772 L 101.565114 193.19273 L 101.450531 194.250022 Z M 124.684907 198.463564 L 125.372407 199.473981 L 126.377616 200.052106 L 138.309908 199.947939 L 139.252617 200.104189 L 142.476575 199.947939 L 145.700534 200.156272 L 146.705742 200.052106 L 147.815117 199.520856 L 148.289076 198.515647 L 148.393242 197.510439 L 148.341159 194.250022 L 148.445326 193.244814 L 147.763034 192.187522 L 146.174492 191.66148 L 139.200533 191.557313 L 138.195325 191.713563 L 137.033867 191.609397 L 135.877616 191.713563 L 134.768241 191.078147 L 134.289075 189.44273 L 134.341158 186.84898 L 134.820325 185.744813 L 135.77345 185.16148 L 137.83595 185.16148 L 138.893242 185.057313 L 141.690117 185.213563 L 143.106784 185.109396 L 144.216159 185.213563 L 145.169284 185.16148 L 146.226575 184.583355 L 146.757825 183.578146 L 146.856784 179.411479 L 146.757825 178.354188 L 146.278659 177.348979 L 145.388034 176.770854 L 143.27345 176.718771 L 142.216159 176.822938 L 141.111992 176.822938 L 139.89845 176.718771 L 135.721366 176.770854 L 134.820325 176.192729 L 134.184908 175.239604 L 134.08595 173.598979 L 134.611991 172.067729 L 136.247408 171.588562 L 146.382825 171.536479 L 147.492201 170.958354 L 148.070326 170.005229 L 147.966159 167.848979 L 147.815117 166.84377 L 147.861992 165.68752 L 148.018242 164.677103 L 147.492201 163.62502 L 146.382825 163.145853 L 142.164075 163.09377 L 141.21095 163.197937 L 140.153658 163.041687 L 137.83595 163.145853 L 136.778658 163.041687 L 134.716158 163.09377 L 133.763033 162.989603 L 126.851574 163.145853 L 125.320324 163.520853 L 124.789074 164.677103 L 124.893241 166.791687 L 124.684907 168.31252 L 124.893241 171.010437 L 124.789074 172.119812 L 124.893241 173.072937 L 124.893241 182.520855 L 124.736991 183.63023 L 124.893241 185.69273 L 124.789074 187.807313 L 124.945324 188.91148 L 124.841157 190.072938 L 124.893241 191.078147 L 124.736991 192.031272 L 124.841157 193.244814 L 124.841157 194.302105 L 124.945324 196.354189 L 124.893241 197.411481 Z M 166.450535 200.427106 L 167.986994 200.578147 L 169.674494 200.526064 L 174.841161 199.520856 L 177.585953 198.041689 L 179.278661 196.88023 L 180.757828 195.19273 L 181.815119 193.50523 L 182.242203 192.546897 L 182.549494 191.50523 L 182.705745 190.552105 L 182.757828 187.276063 L 182.601578 186.218771 L 182.346369 185.213563 L 181.289078 183.265646 L 180.023453 181.630229 L 179.122411 180.885438 L 176.325536 179.619813 L 171.992202 178.562521 L 166.658868 177.880229 L 164.440118 177.078146 L 163.65366 176.666687 L 162.804702 175.817729 L 162.752618 174.385437 L 162.90366 173.020854 L 163.486993 172.286479 L 164.388035 171.588562 L 165.12241 171.28127 L 166.075535 171.06252 L 169.455744 170.958354 L 170.611994 171.380229 L 171.414077 172.015646 L 173.153661 173.859396 L 174.789077 174.385437 L 178.273453 174.500021 L 179.226578 174.385437 L 180.231786 174.500021 L 181.236994 173.859396 L 181.710953 172.864604 L 181.289078 170.802104 L 180.434911 168.895854 L 179.752619 168.057312 L 179.226578 167.208354 L 178.544286 166.421895 L 175.164077 164.098978 L 172.252619 163.09377 L 171.143244 162.885437 L 170.200535 162.770853 L 169.044285 162.515645 L 166.075535 162.567728 L 161.914076 163.401062 L 160.960951 163.776062 L 160.106785 164.307312 L 159.268243 164.630228 L 158.21616 165.260437 L 157.476576 165.942728 L 156.523451 166.572937 L 155.945326 167.479187 L 155.247409 168.161479 L 154.888034 169.114604 L 154.356784 169.953145 L 153.622409 173.020854 L 153.674493 176.552104 L 154.039076 178.036479 L 154.731784 179.880229 L 156.049493 181.630229 L 157.52866 182.994813 L 159.37241 184.104188 L 162.377618 185.109396 L 164.283868 185.53648 L 168.617202 185.843771 L 169.570327 186.015646 L 170.611994 186.06773 L 172.523452 186.84898 L 173.257827 187.484397 L 173.528661 188.864605 L 173.205744 190.229188 L 172.367202 190.97398 L 171.518244 191.44273 L 169.570327 192.031272 L 168.085952 192.083355 L 166.502618 191.968772 L 165.289077 191.66148 L 164.492202 191.28648 L 163.549493 190.708355 L 162.752618 189.968772 L 161.96616 188.91148 L 160.908868 188.489605 L 156.888034 188.385438 L 155.841159 188.489605 L 154.783868 188.437522 L 153.726576 188.91148 L 153.351576 190.020855 L 153.455743 191.182313 L 153.674493 192.135439 L 154.513034 194.250022 L 155.841159 195.885439 L 157.361993 197.411481 L 158.263035 197.989606 L 162.070326 199.739606 L 163.226577 199.895856 L 164.231785 200.255231 Z M 166.450535 200.427106 " stroke="#3d4f52" stroke-width="1.980101" stroke-opacity="1" stroke-miterlimit="4"/></svg>