<?xml version="1.0" encoding="UTF-8"?>
<svg xmlns="http://www.w3.org/2000/svg" xmlns:xlink="http://www.w3.org/1999/xlink" width="50px" height="50px" viewBox="0 0 50 50" version="1.1">
<defs>
<clipPath id="clip1">
  <path d="M 11.867188 7.464844 L 38.164062 7.464844 L 38.164062 37.199219 L 11.867188 37.199219 Z M 11.867188 7.464844 "/>
</clipPath>
</defs>
<g id="surface1">
<path style=" stroke:none;fill-rule:evenodd;fill:rgb(87.058824%,11.372549%,55.294118%);fill-opacity:1;" d="M 29.550781 40.007812 L 19.199219 37.742188 C 19.171875 37.734375 19.144531 37.726562 19.117188 37.714844 C 18.925781 37.667969 18.742188 37.59375 18.578125 37.511719 C 18.214844 37.339844 17.910156 37.09375 17.746094 36.804688 C 17.648438 36.632812 17.546875 36.355469 17.648438 36.046875 C 17.765625 35.699219 18.113281 35.425781 18.570312 35.261719 C 18.734375 35.203125 18.921875 35.164062 19.113281 35.136719 C 19.222656 35.125 19.324219 35.097656 19.441406 35.097656 C 19.660156 35.097656 19.878906 35.125 20.089844 35.167969 L 24.5625 36.152344 L 25.101562 36.269531 L 30.449219 37.4375 C 30.472656 37.445312 30.5 37.457031 30.527344 37.464844 C 30.71875 37.511719 30.902344 37.582031 31.066406 37.660156 C 31.429688 37.839844 31.726562 38.078125 31.890625 38.367188 C 31.992188 38.539062 32.089844 38.816406 31.992188 39.125 C 31.871094 39.472656 31.523438 39.746094 31.066406 39.910156 C 30.804688 40 30.519531 40.066406 30.203125 40.066406 C 30.003906 40.066406 29.800781 40.039062 29.609375 40 C 29.589844 39.996094 29.570312 40 29.550781 39.996094 Z M 28.152344 37.804688 C 28.117188 37.953125 28.210938 38.097656 28.355469 38.128906 L 30.441406 38.585938 C 30.460938 38.589844 30.480469 38.589844 30.5 38.589844 C 30.507812 38.589844 30.511719 38.585938 30.527344 38.585938 C 30.636719 38.578125 30.738281 38.5 30.769531 38.378906 C 30.804688 38.234375 30.710938 38.089844 30.558594 38.058594 L 30.527344 38.050781 L 28.472656 37.601562 C 28.328125 37.570312 28.183594 37.660156 28.152344 37.804688 Z M 28.152344 37.804688 "/>
<path style=" stroke:none;fill-rule:evenodd;fill:rgb(87.058824%,11.372549%,55.294118%);fill-opacity:1;" d="M 20.089844 38.542969 L 26.816406 40.015625 L 29.292969 40.554688 L 30.449219 40.804688 C 31.105469 40.949219 31.648438 41.300781 31.898438 41.734375 C 31.996094 41.914062 32.097656 42.183594 31.996094 42.492188 C 31.8125 43.046875 31.082031 43.433594 30.203125 43.433594 C 30.058594 43.433594 29.90625 43.410156 29.753906 43.390625 C 29.6875 43.375 29.617188 43.382812 29.550781 43.363281 L 29.121094 43.269531 L 21.757812 41.65625 L 21.089844 41.511719 L 19.199219 41.09375 C 18.539062 40.949219 17.996094 40.609375 17.746094 40.167969 C 17.648438 39.996094 17.546875 39.71875 17.648438 39.410156 C 17.765625 39.058594 18.113281 38.789062 18.570312 38.625 C 18.734375 38.566406 18.921875 38.523438 19.113281 38.5 C 19.222656 38.484375 19.324219 38.457031 19.441406 38.457031 C 19.660156 38.457031 19.878906 38.484375 20.089844 38.53125 Z M 28.433594 41.425781 L 30.441406 41.859375 C 30.460938 41.867188 30.480469 41.867188 30.5 41.867188 C 30.625 41.867188 30.738281 41.78125 30.765625 41.65625 C 30.796875 41.511719 30.703125 41.367188 30.550781 41.332031 L 28.460938 40.871094 C 28.316406 40.839844 28.171875 40.929688 28.136719 41.074219 C 28.132812 41.121094 28.152344 41.15625 28.164062 41.195312 C 28.191406 41.285156 28.25 41.371094 28.347656 41.398438 L 28.433594 41.417969 Z M 28.433594 41.425781 "/>
<path style=" stroke:none;fill-rule:evenodd;fill:rgb(87.058824%,11.372549%,55.294118%);fill-opacity:1;" d="M 21.25 42.164062 L 29.359375 43.941406 L 29.964844 44.074219 L 30.449219 44.179688 C 31.101562 44.324219 31.648438 44.667969 31.898438 45.109375 C 31.996094 45.289062 32.097656 45.558594 31.996094 45.867188 C 31.8125 46.421875 31.082031 46.808594 30.210938 46.808594 C 30.097656 46.808594 29.984375 46.785156 29.871094 46.769531 C 29.773438 46.757812 29.660156 46.757812 29.554688 46.738281 L 29.332031 46.683594 L 20.132812 44.667969 L 19.605469 44.554688 L 19.199219 44.464844 C 18.539062 44.316406 17.996094 43.976562 17.746094 43.535156 C 17.601562 43.285156 17.566406 43.019531 17.648438 42.777344 C 17.832031 42.222656 18.5625 41.832031 19.433594 41.832031 C 19.652344 41.832031 19.871094 41.859375 20.082031 41.90625 L 20.648438 42.03125 L 21.242188 42.164062 Z M 28.472656 44.238281 C 28.328125 44.207031 28.183594 44.300781 28.152344 44.445312 C 28.117188 44.59375 28.210938 44.734375 28.355469 44.765625 L 29.542969 45.023438 L 30.097656 45.140625 L 30.441406 45.222656 C 30.460938 45.226562 30.480469 45.226562 30.5 45.226562 C 30.625 45.226562 30.738281 45.140625 30.765625 45.015625 C 30.796875 44.871094 30.703125 44.726562 30.550781 44.695312 L 30.03125 44.582031 L 29.476562 44.457031 L 28.460938 44.238281 Z M 28.472656 44.238281 "/>
<path style=" stroke:none;fill-rule:evenodd;fill:rgb(87.058824%,11.372549%,55.294118%);fill-opacity:1;" d="M 20.074219 45.214844 L 29.140625 47.199219 C 28.394531 48.847656 26.746094 50 24.820312 50 C 22.199219 50 20.066406 47.871094 20.066406 45.253906 C 20.066406 45.242188 20.074219 45.226562 20.074219 45.214844 Z M 23.988281 48.984375 C 24.035156 48.839844 23.949219 48.6875 23.808594 48.648438 C 22.714844 48.320312 21.84375 47.480469 21.472656 46.402344 C 21.421875 46.261719 21.269531 46.191406 21.128906 46.230469 C 20.992188 46.277344 20.914062 46.433594 20.957031 46.574219 C 21.386719 47.816406 22.398438 48.785156 23.65625 49.164062 C 23.683594 49.167969 23.710938 49.175781 23.738281 49.175781 C 23.855469 49.175781 23.960938 49.105469 23.996094 48.976562 Z M 23.988281 48.984375 "/>
<g clip-path="url(#clip1)" clip-rule="nonzero">
<path style=" stroke:none;fill-rule:nonzero;fill:rgb(87.058824%,11.372549%,55.294118%);fill-opacity:1;" d="M 32.808594 29.5 C 31.457031 31.40625 30.296875 33.054688 30.210938 34.347656 L 30.210938 36.785156 L 30.613281 36.871094 L 31.152344 36.988281 L 31.773438 37.128906 L 31.773438 34.398438 C 31.804688 34.003906 32.078125 33.441406 32.472656 32.785156 C 32.902344 32.074219 33.480469 31.25 34.082031 30.398438 C 34.269531 30.140625 34.417969 29.917969 34.523438 29.773438 C 34.695312 29.527344 34.847656 29.308594 34.96875 29.140625 C 35.667969 28.125 36.644531 26.523438 37.328125 24.691406 C 37.8125 23.398438 38.152344 21.988281 38.152344 20.589844 C 38.152344 16.972656 36.683594 13.691406 34.300781 11.316406 C 31.917969 8.9375 28.640625 7.46875 25.011719 7.46875 C 21.386719 7.46875 18.101562 8.9375 15.726562 11.316406 C 13.34375 13.695312 11.875 16.972656 11.875 20.589844 C 11.875 21.996094 12.214844 23.398438 12.699219 24.695312 C 13.382812 26.535156 14.359375 28.128906 15.058594 29.144531 C 15.167969 29.296875 15.316406 29.519531 15.503906 29.777344 C 15.601562 29.921875 15.765625 30.148438 15.945312 30.40625 C 16.425781 31.082031 16.894531 31.75 17.269531 32.328125 C 17.648438 32.910156 17.945312 33.441406 18.113281 33.898438 L 18.214844 34.15625 L 18.484375 34.214844 L 19.097656 34.347656 L 19.929688 34.53125 L 19.699219 33.714844 C 19.527344 33.113281 19.191406 32.453125 18.742188 31.734375 C 18.308594 31.03125 17.777344 30.292969 17.222656 29.5 C 17.039062 29.238281 16.886719 29.027344 16.789062 28.886719 C 16.671875 28.71875 16.523438 28.511719 16.359375 28.269531 C 15.8125 27.472656 15.082031 26.292969 14.488281 24.925781 C 13.898438 23.582031 13.445312 22.074219 13.449219 20.589844 C 13.449219 17.402344 14.75 14.507812 16.839844 12.417969 C 18.933594 10.328125 21.832031 9.03125 25.023438 9.03125 C 28.21875 9.03125 31.105469 10.328125 33.207031 12.417969 C 35.304688 14.511719 36.601562 17.40625 36.601562 20.589844 C 36.601562 21.804688 36.300781 23.035156 35.871094 24.175781 C 35.246094 25.84375 34.332031 27.320312 33.695312 28.261719 C 33.503906 28.539062 33.226562 28.929688 32.953125 29.316406 L 32.828125 29.5 Z M 32.808594 29.5 "/>
</g>
<path style=" stroke:none;fill-rule:evenodd;fill:rgb(87.058824%,11.372549%,55.294118%);fill-opacity:1;" d="M 25.226562 5.886719 C 25.769531 5.886719 26.210938 5.445312 26.210938 4.902344 L 26.210938 0.980469 C 26.210938 0.441406 25.769531 0 25.226562 0 C 24.6875 0 24.246094 0.441406 24.246094 0.980469 L 24.246094 4.902344 C 24.246094 5.445312 24.6875 5.886719 25.226562 5.886719 Z M 28.980469 6.644531 C 28.480469 6.441406 28.242188 5.859375 28.449219 5.363281 L 29.945312 1.738281 C 30.152344 1.238281 30.730469 1.003906 31.226562 1.207031 C 31.726562 1.410156 31.964844 1.992188 31.761719 2.484375 L 30.261719 6.109375 C 30.058594 6.609375 29.476562 6.847656 28.980469 6.644531 Z M 21.039062 6.816406 C 21.539062 6.609375 21.777344 6.03125 21.574219 5.535156 L 20.074219 1.910156 C 19.871094 1.410156 19.289062 1.171875 18.792969 1.378906 C 18.292969 1.582031 18.054688 2.160156 18.261719 2.65625 L 19.757812 6.28125 C 19.960938 6.78125 20.542969 7.019531 21.039062 6.816406 Z M 21.039062 6.816406 "/>
<path style=" stroke:none;fill-rule:evenodd;fill:rgb(87.058824%,11.372549%,55.294118%);fill-opacity:1;" d="M 24.480469 17.316406 C 24.503906 17.148438 24.652344 17.039062 24.820312 17.058594 C 24.984375 17.078125 25.097656 17.230469 25.078125 17.394531 C 25.035156 17.695312 25.121094 17.988281 25.292969 18.21875 C 25.464844 18.441406 25.722656 18.605469 26.027344 18.644531 C 26.191406 18.667969 26.304688 18.816406 26.285156 18.980469 C 26.265625 19.148438 26.113281 19.257812 25.949219 19.238281 C 25.480469 19.171875 25.082031 18.929688 24.820312 18.582031 C 24.820312 18.574219 24.8125 18.574219 24.8125 18.566406 C 24.441406 18.679688 23.730469 18.785156 23.25 18.144531 C 23.148438 18.011719 23.175781 17.824219 23.308594 17.722656 C 23.441406 17.625 23.632812 17.652344 23.730469 17.78125 C 23.960938 18.085938 24.3125 18.074219 24.542969 18.019531 C 24.476562 17.796875 24.457031 17.558594 24.488281 17.316406 Z M 29.972656 17.988281 Z M 25.089844 15.488281 Z M 24.574219 15.179688 Z M 19.199219 22.363281 Z M 19.59375 19.78125 Z M 20.109375 19.46875 Z M 19.546875 22.851562 Z M 29.351562 22.199219 C 29.683594 21.871094 29.886719 21.414062 29.886719 20.90625 C 29.886719 20.40625 29.683594 19.949219 29.351562 19.613281 C 29.023438 19.285156 28.566406 19.082031 28.058594 19.082031 C 27.894531 19.082031 27.753906 18.949219 27.753906 18.777344 C 27.753906 18.613281 27.894531 18.476562 28.058594 18.476562 C 28.730469 18.476562 29.339844 18.746094 29.773438 19.1875 C 30.214844 19.628906 30.488281 20.234375 30.488281 20.902344 C 30.488281 21.085938 30.46875 21.261719 30.425781 21.433594 C 30.613281 21.488281 30.804688 21.519531 31.007812 21.519531 C 32.078125 21.519531 32.953125 20.695312 33.039062 19.648438 C 33.503906 19.371094 33.8125 18.863281 33.8125 18.285156 C 33.8125 17.597656 33.375 17.011719 32.769531 16.792969 C 32.558594 17.191406 32.242188 17.503906 31.871094 17.730469 C 31.339844 18.046875 30.683594 18.160156 30.03125 17.992188 L 30.003906 17.988281 L 29.972656 17.96875 C 29.828125 17.894531 29.761719 17.710938 29.839844 17.566406 C 29.90625 17.441406 30.050781 17.375 30.183594 17.40625 C 30.671875 17.53125 31.167969 17.445312 31.570312 17.210938 C 31.972656 16.972656 32.28125 16.582031 32.40625 16.09375 C 32.472656 15.839844 32.480469 15.574219 32.433594 15.324219 C 32.203125 14.757812 31.761719 14.242188 31.167969 13.902344 C 31.140625 13.894531 31.113281 13.886719 31.085938 13.878906 C 31.019531 13.859375 30.960938 13.828125 30.921875 13.777344 C 30.847656 13.742188 30.769531 13.703125 30.691406 13.675781 C 29.847656 13.355469 28.960938 13.40625 28.261719 13.75 C 27.902344 13.195312 27.273438 12.832031 26.5625 12.832031 C 26.125 12.832031 25.722656 12.972656 25.394531 13.203125 C 25.453125 13.355469 25.492188 13.511719 25.519531 13.667969 C 25.617188 14.28125 25.484375 14.929688 25.097656 15.476562 C 25.011719 15.59375 24.851562 15.640625 24.71875 15.566406 C 24.574219 15.496094 24.507812 15.3125 24.589844 15.167969 L 24.613281 15.125 C 24.910156 14.71875 25.011719 14.222656 24.929688 13.769531 C 24.886719 13.503906 24.785156 13.246094 24.628906 13.023438 C 24.296875 12.800781 23.902344 12.667969 23.480469 12.667969 C 22.398438 12.667969 21.507812 13.511719 21.441406 14.578125 C 21.089844 14.296875 20.640625 14.125 20.160156 14.125 C 20.082031 14.125 20.007812 14.132812 19.9375 14.136719 C 19.902344 14.164062 19.871094 14.183594 19.824219 14.191406 C 19.335938 14.316406 18.945312 14.625 18.707031 15.027344 C 18.472656 15.429688 18.386719 15.925781 18.511719 16.410156 C 18.636719 16.898438 18.945312 17.289062 19.347656 17.527344 C 19.75 17.761719 20.246094 17.847656 20.734375 17.722656 L 20.773438 17.714844 L 20.8125 17.714844 C 20.980469 17.714844 21.117188 17.847656 21.117188 18.019531 C 21.117188 18.164062 21.011719 18.289062 20.878906 18.316406 C 20.234375 18.476562 19.585938 18.363281 19.050781 18.046875 C 18.519531 17.730469 18.101562 17.210938 17.9375 16.558594 L 17.929688 16.515625 C 17.902344 16.410156 17.890625 16.304688 17.878906 16.199219 C 16.949219 16.390625 16.246094 17.210938 16.246094 18.199219 C 16.246094 18.769531 16.484375 19.300781 16.875 19.667969 C 16.585938 20.015625 16.414062 20.464844 16.414062 20.960938 C 16.414062 21.28125 16.484375 21.59375 16.625 21.863281 C 16.652344 21.882812 16.671875 21.902344 16.691406 21.929688 C 16.980469 22.335938 17.414062 22.585938 17.878906 22.667969 C 18.339844 22.746094 18.828125 22.640625 19.238281 22.351562 C 19.644531 22.058594 19.898438 21.625 19.976562 21.171875 C 20.054688 20.710938 19.949219 20.222656 19.660156 19.8125 L 19.632812 19.773438 C 19.558594 19.621094 19.621094 19.445312 19.765625 19.371094 C 19.898438 19.304688 20.0625 19.34375 20.140625 19.464844 C 20.53125 20.011719 20.660156 20.65625 20.5625 21.269531 C 20.464844 21.882812 20.128906 22.457031 19.582031 22.84375 C 19.507812 22.898438 19.433594 22.945312 19.355469 22.988281 C 19.355469 23.007812 19.355469 23.027344 19.355469 23.050781 C 19.355469 24.175781 20.265625 25.085938 21.394531 25.085938 C 21.996094 25.085938 22.535156 24.828125 22.90625 24.414062 L 22.933594 24.378906 C 22.964844 24.394531 22.996094 24.414062 23.023438 24.425781 C 23.058594 25.527344 22.707031 26.890625 21.957031 28.527344 C 23.722656 27.496094 25.003906 25.816406 25.800781 23.496094 C 25.839844 23.496094 25.882812 23.503906 25.925781 23.503906 C 26.507812 23.503906 27.015625 23.1875 27.292969 22.726562 C 27.234375 22.324219 27.050781 21.96875 26.777344 21.691406 C 26.449219 21.363281 25.992188 21.15625 25.484375 21.15625 C 25.320312 21.15625 25.183594 21.019531 25.183594 20.855469 C 25.183594 20.691406 25.3125 20.550781 25.484375 20.550781 C 26.160156 20.550781 26.765625 20.820312 27.199219 21.261719 C 27.589844 21.652344 27.847656 22.164062 27.902344 22.746094 C 27.914062 22.753906 27.925781 22.757812 27.941406 22.765625 C 27.980469 22.746094 28.03125 22.734375 28.078125 22.734375 C 28.578125 22.734375 29.035156 22.527344 29.371094 22.199219 Z M 26.804688 15.378906 C 26.707031 15.246094 26.730469 15.054688 26.863281 14.957031 C 26.996094 14.855469 27.1875 14.882812 27.285156 15.015625 C 27.519531 15.316406 27.867188 15.304688 28.097656 15.25 C 28.03125 15.027344 28.011719 14.789062 28.046875 14.546875 C 28.066406 14.382812 28.21875 14.269531 28.382812 14.289062 C 28.546875 14.308594 28.660156 14.460938 28.640625 14.625 C 28.597656 14.929688 28.683594 15.21875 28.855469 15.449219 C 29.027344 15.671875 29.285156 15.832031 29.589844 15.878906 C 29.753906 15.898438 29.867188 16.050781 29.847656 16.214844 C 29.828125 16.378906 29.675781 16.492188 29.511719 16.472656 C 29.042969 16.40625 28.644531 16.160156 28.382812 15.8125 C 28.382812 15.804688 28.375 15.804688 28.375 15.800781 C 28.003906 15.910156 27.292969 16.015625 26.8125 15.378906 Z M 21.789062 20.925781 C 22.257812 20.992188 22.65625 21.238281 22.917969 21.585938 C 22.917969 21.59375 22.925781 21.59375 22.925781 21.597656 C 23.292969 21.488281 24.007812 21.382812 24.488281 22.019531 C 24.589844 22.152344 24.5625 22.34375 24.429688 22.441406 C 24.296875 22.542969 24.105469 22.515625 24.007812 22.382812 C 23.777344 22.082031 23.425781 22.09375 23.195312 22.144531 C 23.261719 22.371094 23.28125 22.605469 23.25 22.851562 C 23.230469 23.015625 23.078125 23.128906 22.910156 23.109375 C 22.746094 23.089844 22.636719 22.9375 22.65625 22.773438 C 22.695312 22.46875 22.609375 22.179688 22.4375 21.949219 C 22.265625 21.722656 22.007812 21.566406 21.703125 21.519531 C 21.539062 21.5 21.425781 21.347656 21.449219 21.183594 C 21.46875 21.019531 21.617188 20.90625 21.785156 20.925781 Z M 21.789062 20.925781 "/>
</g>
</svg>
